<svg xmlns="http://www.w3.org/2000/svg" xmlns:xlink="http://www.w3.org/1999/xlink" width="500" zoomAndPan="magnify" viewBox="0 0 375 374.999991" height="500" preserveAspectRatio="xMidYMid meet" version="1.0"><defs><clipPath id="1d7f6483f8"><path d="M 17.097656 42.371094 L 331.578125 42.371094 L 331.578125 299.945312 L 17.097656 299.945312 Z M 17.097656 42.371094 " clip-rule="nonzero"/></clipPath><clipPath id="6d5c434eda"><path d="M 27.601562 201.074219 C 43.5 205.273438 48 207 52.648438 208.949219 C 57.675781 211.199219 63.226562 214.050781 68.101562 216.824219 C 72.601562 219.375 75.976562 221.398438 80.773438 224.851562 C 87.75 229.949219 98.699219 239.023438 105.300781 245.175781 C 110.175781 249.75 113.324219 253.199219 117.300781 257.925781 C 121.726562 263.25 126.898438 269.925781 130.425781 275.699219 C 133.425781 280.574219 136.875 286.800781 137.550781 290.101562 C 137.851562 291.75 137.773438 292.648438 137.324219 293.925781 C 136.726562 295.425781 135.375 297.375 133.875 298.273438 C 132.375 299.175781 129.976562 299.476562 128.398438 299.324219 C 127.050781 299.101562 125.925781 298.5 124.949219 297.75 C 123.976562 297 122.851562 296.101562 122.625 294.75 C 122.25 292.425781 124.726562 288 126.226562 284.625 C 127.800781 281.023438 129.675781 277.800781 132.074219 273.824219 C 135.226562 268.726562 138.976562 263.25 143.550781 256.875 C 149.851562 248.175781 156.148438 239.773438 166.648438 226.875 C 186.976562 201.976562 239.101562 143.773438 259.199219 120 C 269.175781 108.226562 273.074219 103.648438 281.175781 93.449219 C 291.824219 79.875 312.824219 50.699219 317.324219 45.601562 C 318.226562 44.550781 318.300781 44.324219 319.125 43.800781 C 320.25 43.125 322.351562 42.300781 323.925781 42.375 C 325.5 42.375 327.523438 43.351562 328.648438 44.101562 C 329.398438 44.625 329.851562 45.148438 330.300781 46.050781 C 330.976562 47.25 331.648438 49.351562 331.5 50.925781 C 331.351562 52.5 330.523438 54.300781 329.476562 55.5 C 328.425781 56.699219 326.398438 57.601562 325.125 57.976562 C 324.148438 58.199219 323.398438 58.125 322.574219 58.050781 C 321.75 57.898438 320.925781 57.75 320.101562 57.226562 C 318.976562 56.550781 317.25 55.125 316.574219 53.699219 C 315.898438 52.273438 315.601562 50.25 315.898438 48.675781 C 316.273438 47.175781 317.476562 45.300781 318.449219 44.324219 C 319.125 43.648438 319.648438 43.273438 320.625 42.976562 C 321.898438 42.523438 324.074219 42.226562 325.574219 42.601562 C 327.148438 42.976562 328.875 44.324219 329.851562 45.300781 C 330.449219 46.050781 330.824219 46.648438 331.050781 47.550781 C 331.425781 48.824219 331.875 50.324219 331.199219 52.574219 C 329.25 58.726562 317.25 72.601562 308.625 83.925781 C 297.898438 98.023438 286.574219 111.824219 271.125 130.351562 C 247.425781 158.625 199.199219 211.949219 179.101562 236.476562 C 168.824219 249.074219 163.949219 255.601562 156.601562 265.648438 C 149.175781 275.925781 136.425781 298.199219 134.925781 297.523438 C 134.25 297.226562 136.648438 288.300781 137.023438 288.300781 C 137.25 288.375 137.851562 292.199219 137.324219 293.925781 C 136.800781 295.574219 135.375 297.375 133.875 298.273438 C 132.375 299.175781 129.976562 299.476562 128.398438 299.324219 C 127.050781 299.101562 126.226562 298.875 124.949219 297.75 C 121.800781 294.898438 116.773438 283.125 113.101562 277.875 C 110.550781 274.125 108.523438 271.875 105.75 268.648438 C 102.523438 264.898438 99.300781 261.148438 94.800781 256.949219 C 88.800781 251.25 78.601562 242.773438 72.300781 238.125 C 67.949219 234.976562 64.949219 233.175781 60.898438 230.851562 C 56.550781 228.375 51.523438 225.75 47.023438 223.726562 C 43.050781 221.925781 39.226562 220.5 35.324219 219.226562 C 31.5 218.023438 26.398438 217.351562 23.773438 216.375 C 22.273438 215.773438 21.375 215.550781 20.398438 214.574219 C 19.273438 213.449219 18.148438 211.199219 17.851562 209.625 C 17.625 208.351562 17.773438 207.074219 18.300781 205.875 C 18.976562 204.449219 20.476562 202.5 22.050781 201.75 C 23.550781 200.925781 27.601562 201.074219 27.601562 201.074219 " clip-rule="nonzero"/></clipPath></defs><g clip-path="url(#1d7f6483f8)"><g clip-path="url(#6d5c434eda)"><path fill="#ffffff" d="M 14.851562 39.375 L 334.574219 39.375 L 334.574219 302.195312 L 14.851562 302.195312 Z M 14.851562 39.375 " fill-opacity="1" fill-rule="nonzero"/></g></g></svg>